<svg width="32" height="32" viewBox="0 0 32 32" fill="none" xmlns="http://www.w3.org/2000/svg">
<path fill-rule="evenodd" clip-rule="evenodd" d="M20 1.5C20 2.32843 20.6716 3 21.5 3H26.8787L9.43934 20.4393C8.85355 21.0251 8.85355 21.9749 9.43934 22.5607C10.0251 23.1464 10.9749 23.1464 11.5607 22.5607L29 5.12132V10.5C29 11.3284 29.6716 12 30.5 12C31.3284 12 32 11.3284 32 10.5V1.5C32 0.671573 31.3284 0 30.5 0H21.5C20.6716 0 20 0.671573 20 1.5ZM3 10.5C3 8.01472 5.01472 6 7.5 6H15.5C16.3284 6 17 5.32843 17 4.5C17 3.67157 16.3284 3 15.5 3H7.5C3.35786 3 0 6.35786 0 10.5V24.5C0 28.6421 3.35786 32 7.5 32H21.5C25.6421 32 29 28.6421 29 24.5V16.5C29 15.6716 28.3284 15 27.5 15C26.6716 15 26 15.6716 26 16.5V24.5C26 26.9853 23.9853 29 21.5 29H7.5C5.01472 29 3 26.9853 3 24.5V10.5Z" fill="black"/>
</svg>